<svg width="738" height="135" viewBox="0 0 738 135" fill="none" xmlns="http://www.w3.org/2000/svg">
<path d="M96.5719 196.057C96.5719 222.772 74.9535 244.428 48.2859 244.428C21.6183 244.428 0 222.772 0 196.057C0 169.343 21.6183 147.686 48.2859 147.686C74.9535 147.686 96.5719 169.343 96.5719 196.057Z" fill="#CED9E0"/>
<path d="M194.124 219.383C194.124 246.234 172.286 268 145.348 268C118.41 268 96.5719 246.234 96.5719 219.383C96.5719 192.533 118.41 170.767 145.348 170.767C172.286 170.767 194.124 192.533 194.124 219.383Z" fill="#CED9E0"/>
<path d="M367.169 136.637C367.169 155.486 351.916 170.767 333.099 170.767C314.283 170.767 299.03 155.486 299.03 136.637C299.03 117.787 314.283 102.507 333.099 102.507C351.916 102.507 367.169 117.787 367.169 136.637Z" fill="#CED9E0"/>
<path d="M426.975 142.53C426.975 161.379 411.721 176.66 392.905 176.66C374.089 176.66 358.836 161.379 358.836 142.53C358.836 123.68 374.089 108.4 392.905 108.4C411.721 108.4 426.975 123.68 426.975 142.53Z" fill="#CED9E0"/>
<path d="M450.015 118.958C450.015 131.57 439.809 141.793 427.22 141.793C414.631 141.793 404.425 131.57 404.425 118.958C404.425 106.347 414.631 96.123 427.22 96.123C439.809 96.123 450.015 106.347 450.015 118.958Z" fill="#CED9E0"/>
<path d="M535.802 97.3507C535.802 109.962 525.597 120.186 513.007 120.186C500.418 120.186 490.212 109.962 490.212 97.3507C490.212 84.7392 500.418 74.5156 513.007 74.5156C525.597 74.5156 535.802 84.7392 535.802 97.3507Z" fill="#CED9E0"/>
<path d="M668.927 127.034C666.665 140.954 653.458 150.384 639.43 148.096C625.401 145.808 615.862 132.669 618.124 118.749C620.386 104.829 633.593 95.3996 647.622 97.6875C661.651 99.9754 671.189 113.114 668.927 127.034Z" fill="#CED9E0"/>
<path d="M737.56 129.52C735.276 143.574 722.052 153.112 708.023 150.824C693.994 148.536 684.472 135.289 686.756 121.235C689.04 107.181 702.265 97.6432 716.294 99.9312C730.323 102.219 739.844 115.467 737.56 129.52Z" fill="#CED9E0"/>
<path d="M695.274 136.058C693.773 145.293 685.083 151.561 675.864 150.058C666.645 148.554 660.388 139.848 661.889 130.613C663.39 121.378 672.08 115.11 681.299 116.613C690.518 118.117 696.775 126.823 695.274 136.058Z" fill="#CED9E0"/>
<path d="M506.88 107.909C506.88 126.623 491.516 141.793 472.565 141.793C453.613 141.793 438.25 126.623 438.25 107.909C438.25 89.195 453.613 74.0245 472.565 74.0245C491.516 74.0245 506.88 89.195 506.88 107.909Z" fill="#CED9E0"/>
<path d="M637.646 102.529C634.819 119.929 618.446 131.738 601.077 128.905C583.707 126.072 571.919 109.671 574.747 92.2707C577.575 74.8708 593.947 63.0618 611.317 65.8944C628.686 68.7271 640.474 85.1289 637.646 102.529Z" fill="#CED9E0"/>
<path d="M310.305 156.771C310.305 167.755 301.525 176.66 290.696 176.66C279.867 176.66 271.087 167.755 271.087 156.771C271.087 145.787 279.867 136.882 290.696 136.882C301.525 136.882 310.305 145.787 310.305 156.771Z" fill="#CED9E0"/>
<path d="M117.161 199.004C117.161 209.988 108.162 218.892 97.0621 218.892C85.9619 218.892 76.9634 209.988 76.9634 199.004C76.9634 188.019 85.9619 179.115 97.0621 179.115C108.162 179.115 117.161 188.019 117.161 199.004Z" fill="#CED9E0"/>
<path d="M222.066 199.004C222.066 209.988 213.177 218.892 202.213 218.892C191.248 218.892 182.359 209.988 182.359 199.004C182.359 188.019 191.248 179.115 202.213 179.115C213.177 179.115 222.066 188.019 222.066 199.004Z" fill="#CED9E0"/>
<path d="M250.008 199.004C250.008 209.988 241.229 218.892 230.4 218.892C219.57 218.892 210.791 209.988 210.791 199.004C210.791 188.019 219.57 179.115 230.4 179.115C241.229 179.115 250.008 188.019 250.008 199.004Z" fill="#CED9E0"/>
<path d="M297.84 180.722C302.646 192.7 294.733 207.165 280.166 213.03C265.599 218.894 249.894 213.938 245.089 201.959C240.283 189.981 248.196 175.516 262.763 169.651C277.33 163.787 293.035 168.743 297.84 180.722Z" fill="#CED9E0"/>
<path d="M516.943 76.5276C545.193 65.3711 552.969 21.1026 553.326 0.362915H571.517C560.388 47.5635 602.549 75.8124 625.021 84.0368L549.045 110.855C526.574 104.061 488.693 87.6841 516.943 76.5276Z" fill="#CED9E0"/>
<path d="M205.154 203.178L26.9617 185.253V216.191H735.809L731.887 126.079H717.426C712.769 126.079 704.926 126.079 692.425 128.78C679.925 131.481 675.758 132.217 651.983 126.079C628.207 119.94 635.806 120.677 626.001 114.293C616.197 107.909 595.118 95.8774 588.745 93.6676C582.372 91.4577 562.274 90.9667 549.283 89.9845C536.292 89.0023 490.703 113.802 481.634 114.293C472.565 114.784 456.633 121.905 441.436 125.588C426.24 129.271 402.71 137.128 388.493 137.619C377.12 138.012 342.413 144.494 326.482 147.686C317.086 152.597 297.755 162.664 295.598 163.646C292.902 164.874 256.136 195.075 252.95 195.075C250.401 195.075 220.024 200.477 205.154 203.178Z" fill="#CED9E0"/>
</svg>
