<svg width="187" height="80" viewBox="0 0 187 80" fill="none" xmlns="http://www.w3.org/2000/svg">
<g filter="url(#filter0_d_17_1215)">
<path fill-rule="evenodd" clip-rule="evenodd" d="M40.1246 29H50.089C51.3975 29 52.6932 29.2577 53.9022 29.7585C55.1111 30.2593 56.2096 30.9932 57.1349 31.9185C58.0602 32.8438 58.7941 33.9423 59.2949 35.1512C59.7956 36.3601 60.0534 37.6559 60.0534 38.9644C60.0534 40.273 59.7956 41.5687 59.2949 42.7776C58.7941 43.9866 58.0602 45.085 57.1349 46.0103C56.2096 46.9356 55.1111 47.6696 53.9022 48.1703C52.6932 48.6711 51.3975 48.9288 50.089 48.9288V58.8932H40.1246V48.9288H30.1602V38.9644H40.1246V29ZM50.089 48.9288V38.9644H40.1246V48.9288H50.089Z" fill="white"/>
<path d="M75.9872 47.3594H79.14V43.3085H81.2801C84.2673 43.3085 86.1335 41.5378 86.1335 38.8309C86.1335 36.1494 84.3055 34.3151 81.3757 34.3151H75.9872V47.3594ZM79.14 40.8245V36.8564H80.6942C82.1081 36.8564 82.8661 37.6207 82.8661 38.8309C82.8661 40.0347 82.1081 40.8245 80.6942 40.8245H79.14ZM87.6876 47.3594H90.8022V37.5761H87.6876V47.3594ZM89.2481 36.436C90.1335 36.436 90.8468 35.7673 90.8468 34.9456C90.8468 34.124 90.1335 33.4616 89.2481 33.4616C88.3692 33.4616 87.6494 34.124 87.6494 34.9456C87.6494 35.7673 88.3692 36.436 89.2481 36.436ZM95.4343 37.5761H92.2751L94.9757 42.4678L92.135 47.3594H95.2942L97.0457 44.111L98.8419 47.3594H101.956L99.1221 42.4678L101.855 37.5761H98.7145L97.0457 40.799L95.4343 37.5761ZM111.818 40.5633C111.652 38.6271 110.066 37.4487 107.417 37.4487C104.767 37.4487 103.079 38.6016 103.092 40.5633C103.079 42.0665 104.041 43.0346 105.996 43.3977L107.703 43.7225C108.512 43.8817 108.881 44.1365 108.894 44.5696C108.881 45.0601 108.334 45.3849 107.538 45.3849C106.652 45.3849 106.054 45.0027 105.92 44.2894L102.843 44.3658C103.066 46.3021 104.729 47.5441 107.525 47.5441C110.143 47.5441 112.047 46.2384 112.06 44.2257C112.047 42.799 111.104 41.9518 109.155 41.5761L107.27 41.2194C106.442 41.0538 106.175 40.7608 106.181 40.385C106.175 39.8882 106.754 39.5825 107.474 39.5825C108.296 39.5825 108.869 40.0219 108.958 40.6398L111.818 40.5633ZM113.593 51.0281H116.708V45.7734H116.771C117.166 46.6779 118.045 47.4995 119.523 47.4995C121.689 47.4995 123.434 45.8053 123.434 42.4741C123.434 39.022 121.587 37.4487 119.542 37.4487C117.994 37.4487 117.147 38.3532 116.771 39.2513H116.676V37.5761H113.593V51.0281ZM116.644 42.4678C116.644 40.8691 117.306 39.8818 118.447 39.8818C119.599 39.8818 120.236 40.8945 120.236 42.4678C120.236 44.0473 119.599 45.0728 118.447 45.0728C117.306 45.0728 116.644 44.0537 116.644 42.4678ZM127.824 47.525C129.187 47.525 130.129 46.9963 130.664 45.9963H130.741V47.3594H133.671V40.7098C133.671 38.6398 131.83 37.4487 129.34 37.4487C126.709 37.4487 125.219 38.7736 124.97 40.557L127.843 40.6589C127.977 40.0347 128.493 39.6525 129.314 39.6525C130.079 39.6525 130.563 40.0219 130.563 40.678V40.7098C130.563 41.3085 129.913 41.4359 128.244 41.5824C126.263 41.748 124.607 42.4805 124.607 44.6461C124.607 46.5823 125.951 47.525 127.824 47.525ZM128.786 45.4868C128.066 45.4868 127.556 45.1429 127.556 44.4932C127.556 43.8626 128.053 43.4805 128.938 43.3467C129.518 43.2639 130.231 43.1365 130.582 42.9518V43.8817C130.582 44.8371 129.779 45.4868 128.786 45.4868ZM140.142 47.5441C142.894 47.5441 144.601 45.9454 144.683 43.5251H141.773C141.658 44.5633 141.034 45.1301 140.18 45.1301C139.085 45.1301 138.371 44.2066 138.371 42.4678C138.371 40.7417 139.091 39.8181 140.18 39.8181C141.072 39.8181 141.652 40.4232 141.773 41.4232H144.683C144.613 39.0156 142.855 37.4487 140.136 37.4487C137.059 37.4487 135.199 39.4997 135.199 42.4996C135.199 45.4868 137.047 47.5441 140.142 47.5441ZM150.85 47.5441C153.417 47.5441 155.105 46.3021 155.462 44.3785L152.602 44.2957C152.36 44.9454 151.723 45.2957 150.908 45.2957C149.71 45.2957 148.971 44.4996 148.971 43.3021V43.2193H155.494V42.4423C155.494 39.2194 153.532 37.4487 150.755 37.4487C147.799 37.4487 145.901 39.4742 145.901 42.506C145.901 45.6397 147.774 47.5441 150.85 47.5441ZM148.971 41.4105C149.016 40.4359 149.787 39.6971 150.819 39.6971C151.844 39.6971 152.583 40.4105 152.596 41.4105H148.971Z" fill="white"/>
<a href="https://www.instagram.com/abdulaziz_mardonov/">
<rect fill="black" fill-opacity="0" y="0.146716" width="81.105" height="21.7066"/>
</a>
<path d="M79.0891 54.4253C78.9405 53.4953 78.2122 52.9518 77.2929 52.9518C76.1677 52.9518 75.3376 53.7947 75.3376 55.1853C75.3376 56.576 76.1635 57.4188 77.2929 57.4188C78.2483 57.4188 78.9468 56.8201 79.0891 55.9603L78.4267 55.9581C78.3142 56.5144 77.8471 56.8201 77.2972 56.8201C76.552 56.8201 75.9894 56.249 75.9894 55.1853C75.9894 54.1301 76.5499 53.5505 77.2993 53.5505C77.8534 53.5505 78.3184 53.8626 78.4267 54.4253H79.0891ZM79.8232 57.3594H80.458V55.3679C80.458 54.9412 80.787 54.6333 81.2371 54.6333C81.3688 54.6333 81.5174 54.6567 81.5683 54.6715V54.0643C81.5046 54.0558 81.3794 54.0495 81.2987 54.0495C80.9165 54.0495 80.5896 54.266 80.4707 54.6163H80.4367V54.0983H79.8232V57.3594ZM83.4064 57.4252C84.1177 57.4252 84.6208 57.0749 84.7652 56.5441L84.1644 56.4358C84.0497 56.7437 83.7737 56.9008 83.4128 56.9008C82.8693 56.9008 82.5041 56.5484 82.4871 55.9199H84.8055V55.6949C84.8055 54.5165 84.1007 54.0558 83.3618 54.0558C82.4531 54.0558 81.8544 54.748 81.8544 55.7501C81.8544 56.7628 82.4446 57.4252 83.4064 57.4252ZM82.4892 55.4443C82.5147 54.9815 82.8502 54.5802 83.3661 54.5802C83.8586 54.5802 84.1813 54.9454 84.1835 55.4443H82.4892ZM86.4589 57.4316C86.9982 57.4316 87.3018 57.1577 87.4228 56.9135H87.4483V57.3594H88.0682V55.1938C88.0682 54.2448 87.3209 54.0558 86.8028 54.0558C86.2126 54.0558 85.6691 54.2936 85.4568 54.8881L86.0534 55.024C86.1468 54.7925 86.3846 54.5696 86.8113 54.5696C87.2211 54.5696 87.4313 54.7841 87.4313 55.1535V55.1683C87.4313 55.3998 87.1935 55.3955 86.6075 55.4634C85.9897 55.5356 85.357 55.697 85.357 56.4379C85.357 57.0791 85.839 57.4316 86.4589 57.4316ZM86.5969 56.922C86.2381 56.922 85.9791 56.7607 85.9791 56.4464C85.9791 56.1067 86.2806 55.9857 86.6479 55.9369C86.8538 55.9093 87.3421 55.8541 87.4334 55.7628V56.1832C87.4334 56.5696 87.1256 56.922 86.5969 56.922ZM90.436 54.0983H89.7672V53.317H89.1324V54.0983H88.6547V54.6078H89.1324V56.5335C89.1303 57.1258 89.5825 57.4125 90.0836 57.4018C90.2853 57.3997 90.4211 57.3615 90.4954 57.3339L90.3808 56.8095C90.3383 56.818 90.2598 56.8371 90.1579 56.8371C89.9519 56.8371 89.7672 56.7692 89.7672 56.4019V54.6078H90.436V54.0983ZM91.1382 57.3594H91.773V54.0983H91.1382V57.3594ZM91.4588 53.5951C91.6775 53.5951 91.8601 53.4253 91.8601 53.2172C91.8601 53.0091 91.6775 52.8372 91.4588 52.8372C91.238 52.8372 91.0575 53.0091 91.0575 53.2172C91.0575 53.4253 91.238 53.5951 91.4588 53.5951ZM95.4168 54.0983H94.7353L93.9115 56.6078H93.8775L93.0517 54.0983H92.3701L93.5548 57.3594H94.2342L95.4168 54.0983ZM97.3021 57.4252C98.0133 57.4252 98.5165 57.0749 98.6609 56.5441L98.06 56.4358C97.9454 56.7437 97.6694 56.9008 97.3085 56.9008C96.765 56.9008 96.3998 56.5484 96.3828 55.9199H98.7012V55.6949C98.7012 54.5165 97.9964 54.0558 97.2575 54.0558C96.3488 54.0558 95.7501 54.748 95.7501 55.7501C95.7501 56.7628 96.3403 57.4252 97.3021 57.4252ZM96.3849 55.4443C96.4104 54.9815 96.7458 54.5802 97.2618 54.5802C97.7543 54.5802 98.077 54.9454 98.0792 55.4443H96.3849ZM102.446 57.3594C103.771 57.3594 104.538 56.5377 104.538 55.179C104.538 53.8265 103.771 53.0113 102.491 53.0113H101.039V57.3594H102.446ZM101.695 56.7861V53.5845H102.451C103.402 53.5845 103.892 54.1535 103.892 55.179C103.892 56.2087 103.402 56.7861 102.41 56.7861H101.695ZM106.708 57.4252C107.419 57.4252 107.922 57.0749 108.067 56.5441L107.466 56.4358C107.351 56.7437 107.075 56.9008 106.714 56.9008C106.171 56.9008 105.806 56.5484 105.789 55.9199H108.107V55.6949C108.107 54.5165 107.402 54.0558 106.663 54.0558C105.755 54.0558 105.156 54.748 105.156 55.7501C105.156 56.7628 105.746 57.4252 106.708 57.4252ZM105.791 55.4443C105.816 54.9815 106.152 54.5802 106.668 54.5802C107.16 54.5802 107.483 54.9454 107.485 55.4443H105.791ZM111.255 54.8945C111.123 54.387 110.726 54.0558 110.022 54.0558C109.285 54.0558 108.763 54.4444 108.763 55.0218C108.763 55.4847 109.043 55.7925 109.654 55.9284L110.206 56.0494C110.521 56.1195 110.667 56.2596 110.667 56.4634C110.667 56.7161 110.397 56.9135 109.981 56.9135C109.601 56.9135 109.357 56.75 109.281 56.4295L108.667 56.5229C108.773 57.1004 109.253 57.4252 109.985 57.4252C110.773 57.4252 111.319 57.0069 111.319 56.4167C111.319 55.956 111.026 55.6715 110.427 55.5335L109.909 55.4146C109.55 55.3297 109.395 55.2087 109.397 54.9879C109.395 54.7373 109.667 54.559 110.028 54.559C110.423 54.559 110.605 54.7777 110.68 54.9964L111.255 54.8945ZM112.017 57.3594H112.652V54.0983H112.017V57.3594ZM112.337 53.5951C112.556 53.5951 112.739 53.4253 112.739 53.2172C112.739 53.0091 112.556 52.8372 112.337 52.8372C112.117 52.8372 111.936 53.0091 111.936 53.2172C111.936 53.4253 112.117 53.5951 112.337 53.5951ZM114.873 58.6502C115.703 58.6502 116.344 58.2702 116.344 57.4316V54.0983H115.722V54.6269H115.675C115.563 54.4253 115.338 54.0558 114.731 54.0558C113.943 54.0558 113.363 54.6779 113.363 55.7161C113.363 56.7564 113.956 57.3105 114.726 57.3105C115.325 57.3105 115.557 56.973 115.671 56.7649H115.711V57.4061C115.711 57.9178 115.361 58.1386 114.879 58.1386C114.351 58.1386 114.145 57.8732 114.032 57.6863L113.486 57.9114C113.658 58.3105 114.094 58.6502 114.873 58.6502ZM114.866 56.784C114.3 56.784 114.005 56.3488 114.005 55.7076C114.005 55.0813 114.293 54.5951 114.866 54.5951C115.421 54.5951 115.718 55.0473 115.718 55.7076C115.718 56.3806 115.414 56.784 114.866 56.784ZM117.83 55.4231C117.83 54.9029 118.149 54.6057 118.59 54.6057C119.021 54.6057 119.283 54.8881 119.283 55.3615V57.3594H119.917V55.2851C119.917 54.4783 119.474 54.0558 118.807 54.0558C118.317 54.0558 117.996 54.283 117.845 54.6291H117.805V54.0983H117.196V57.3594H117.83V55.4231ZM124.773 54.1535H125.406C125.387 53.4571 124.771 52.9518 123.888 52.9518C123.015 52.9518 122.347 53.4507 122.347 54.2002C122.347 54.8053 122.78 55.1598 123.478 55.3488L123.992 55.4889C124.457 55.6121 124.816 55.7649 124.816 56.1513C124.816 56.576 124.41 56.8562 123.852 56.8562C123.347 56.8562 122.926 56.6312 122.888 56.1577H122.23C122.272 56.9454 122.882 57.4316 123.856 57.4316C124.877 57.4316 125.466 56.8944 125.466 56.1577C125.466 55.3743 124.767 55.0707 124.215 54.9348L123.79 54.8244C123.451 54.7373 122.999 54.5781 123.001 54.162C123.001 53.7926 123.338 53.5187 123.873 53.5187C124.372 53.5187 124.727 53.7522 124.773 54.1535ZM127.721 54.0983H127.052V53.317H126.417V54.0983H125.94V54.6078H126.417V56.5335C126.415 57.1258 126.867 57.4125 127.368 57.4018C127.57 57.3997 127.706 57.3615 127.78 57.3339L127.666 56.8095C127.623 56.818 127.545 56.8371 127.443 56.8371C127.237 56.8371 127.052 56.7692 127.052 56.4019V54.6078H127.721V54.0983ZM130.489 56.007C130.491 56.5611 130.079 56.8244 129.722 56.8244C129.33 56.8244 129.058 56.5399 129.058 56.0961V54.0983H128.423V56.1726C128.423 56.9815 128.867 57.4018 129.493 57.4018C129.983 57.4018 130.317 57.1428 130.468 56.7946H130.502V57.3594H131.126V54.0983H130.489V56.007ZM133.199 57.4231C133.794 57.4231 134.027 57.06 134.142 56.852H134.195V57.3594H134.815V53.0113H134.18V54.6269H134.142C134.027 54.4253 133.811 54.0558 133.204 54.0558C132.416 54.0558 131.836 54.6779 131.836 55.7352C131.836 56.7904 132.408 57.4231 133.199 57.4231ZM133.34 56.8817C132.773 56.8817 132.478 56.3827 132.478 55.7288C132.478 55.0813 132.766 54.5951 133.34 54.5951C133.894 54.5951 134.191 55.0473 134.191 55.7288C134.191 56.4146 133.887 56.8817 133.34 56.8817ZM135.721 57.3594H136.356V54.0983H135.721V57.3594ZM136.042 53.5951C136.26 53.5951 136.443 53.4253 136.443 53.2172C136.443 53.0091 136.26 52.8372 136.042 52.8372C135.821 52.8372 135.64 53.0091 135.64 53.2172C135.64 53.4253 135.821 53.5951 136.042 53.5951ZM138.584 57.4252C139.503 57.4252 140.104 56.7522 140.104 55.7437C140.104 54.7289 139.503 54.0558 138.584 54.0558C137.664 54.0558 137.064 54.7289 137.064 55.7437C137.064 56.7522 137.664 57.4252 138.584 57.4252ZM138.586 56.8923C137.985 56.8923 137.705 56.3679 137.705 55.7416C137.705 55.1174 137.985 54.5866 138.586 54.5866C139.182 54.5866 139.463 55.1174 139.463 55.7416C139.463 56.3679 139.182 56.8923 138.586 56.8923Z" fill="white"/>
</g>
<defs>
<filter id="filter0_d_17_1215" x="0.266916" y="0.601422" width="186.626" height="89.6798" filterUnits="userSpaceOnUse" color-interpolation-filters="sRGB">
<feFlood flood-opacity="0" result="BackgroundImageFix"/>
<feColorMatrix in="SourceAlpha" type="matrix" values="0 0 0 0 0 0 0 0 0 0 0 0 0 0 0 0 0 0 127 0" result="hardAlpha"/>
<feOffset dy="1.49466"/>
<feGaussianBlur stdDeviation="14.9466"/>
<feColorMatrix type="matrix" values="0 0 0 0 0 0 0 0 0 0 0 0 0 0 0 0 0 0 0.5 0"/>
<feBlend mode="normal" in2="BackgroundImageFix" result="effect1_dropShadow_17_1215"/>
<feBlend mode="normal" in="SourceGraphic" in2="effect1_dropShadow_17_1215" result="shape"/>
</filter>
</defs>
</svg>
