<svg width="57" height="64" viewBox="0 0 57 64" fill="none" xmlns="http://www.w3.org/2000/svg">
<path fill-rule="evenodd" clip-rule="evenodd" d="M24.7951 3.7411C19.1066 2.84433 12.1867 3.94857 8.69332 8.9946C8.69332 8.9946 18.4909 29.4464 21.8505 37.9457C32.0563 32.1434 46.6523 35.5967 56.2424 41.6064C45.963 37.3902 29.8679 35.1817 20.686 42.9181C20.686 42.9181 12.0529 25.4377 5.34045 9.06152C9.04132 1.80702 17.4001 0.910242 24.5207 2.84433C25.0695 2.97818 25.21 3.46002 24.7951 3.7411Z" fill="#F5F8FA"/>
<path fill-rule="evenodd" clip-rule="evenodd" d="M6.0901 15.2786C4.71816 16.3159 2.73054 17.487 1.15784 18.183C1.29168 18.3905 18.2166 53.0769 18.2166 53.0769C27.8737 44.3033 40.549 40.5689 53.773 42.1617C40.4151 40.0871 31.5745 39.6052 18.8323 48.7269L1.70661 18.3838C2.52977 17.9689 5.88263 16.1017 6.29756 15.6199C6.36448 15.553 6.29756 15.2786 6.0901 15.2786Z" fill="#F5F8FA"/>
<path fill-rule="evenodd" clip-rule="evenodd" d="M2.73717 24.4673L2.67025 24.1929C2.67025 24.1929 0.890082 24.3334 0 25.4377L16.3092 63.0955C16.3092 63.0955 23.6374 54.8706 31.3804 50.728C33.0267 49.8312 41.5193 45.0596 51.9995 42.7842C38.568 44.029 25.6919 49.3494 16.8513 59.9233L0.475157 25.5715C0.475157 25.5715 0.88339 24.8153 2.73717 24.4673Z" fill="#F5F8FA"/>
<path fill-rule="evenodd" clip-rule="evenodd" d="M50.4871 44.4373C38.9094 50.2395 33.6358 54.6631 26.0935 63.2293L22.8745 58.4644L24.3803 57.0858C25.0629 57.9826 26.3679 60.0572 26.3679 60.0572C29.2523 57.1527 36.306 49.7577 50.4871 44.4373Z" fill="#F5F8FA"/>
<path d="M49.0481 16.2423C51.377 13.204 52.0597 10.2326 50.8952 8.15797C49.6638 6.01642 46.7192 5.18657 43.0183 5.66842C41.5794 2.21517 39.3844 0 36.9216 0C35.0009 0 33.2876 1.31169 31.8488 3.73432C31.7149 3.94178 31.7819 4.28978 31.9826 4.42363C32.257 4.56417 32.5314 4.49056 32.6652 4.21617C33.8966 2.14154 35.4024 1.03731 36.9149 1.03731C38.695 1.03731 40.4083 2.55646 41.7802 5.3204C41.8471 5.52786 41.9141 5.66841 41.9877 5.80225C40.415 6.07664 38.7017 6.63212 36.9149 7.32143C34.519 6.35104 32.1901 5.73533 30.0619 5.59479C26.5685 5.3204 24.099 6.21718 23.0082 8.15127C21.8437 10.2259 22.4594 13.1237 24.7884 16.2356C22.5263 19.274 21.7768 22.2454 23.0082 24.3869C23.9652 26.0466 26.0197 26.9434 28.8975 26.9434C29.2388 26.9434 29.6537 26.9434 30.0619 26.9434C30.3363 26.9434 30.6107 26.8765 30.8851 26.8765C32.3909 30.4033 34.5859 32.4713 36.9149 32.4713C39.3844 32.4713 41.5728 30.3297 43.0116 26.8765C43.6942 26.9434 44.3166 26.9434 44.9323 26.9434C47.7431 26.9434 49.8646 26.0466 50.8952 24.3869C52.0663 22.2587 51.377 19.2873 49.0481 16.2423ZM50.0051 8.6465C50.9621 10.3731 50.3464 12.8627 48.4324 15.4861C47.4018 14.2413 46.1035 12.9965 44.5977 11.8254C44.3233 9.89127 43.9151 8.16466 43.3663 6.64549C46.5853 6.29749 49.0481 6.91987 50.0051 8.6465ZM44.7315 13.204C45.9629 14.2413 46.9936 15.205 47.8167 16.2423C46.9936 17.2796 45.9696 18.3169 44.7315 19.3542C44.8654 18.3169 44.8654 17.2796 44.8654 16.2423C44.8721 15.2117 44.8721 14.1744 44.7315 13.204ZM41.7869 27.1642C40.415 29.9951 38.7017 31.5143 36.9216 31.5143C35.0009 31.5143 33.2207 29.7876 31.8488 26.6757C33.4951 26.4013 35.2083 25.9128 36.9216 25.1565C36.9885 25.2234 36.9885 25.2234 36.9885 25.2234C37.196 25.2234 37.3298 25.0829 37.3967 25.016C38.5612 24.4605 39.7257 23.9117 40.8901 23.2224C41.1645 23.0819 41.4389 22.948 41.7133 22.7406C41.9208 22.6 41.9877 22.3257 41.8471 22.0513C41.7133 21.8438 41.3653 21.7769 41.1645 21.9107C40.8901 22.0513 40.6827 22.1851 40.4083 22.3926C39.2438 23.015 38.0793 23.6374 36.9149 24.1192C35.7504 23.6374 34.5859 23.015 33.4215 22.3926C31.0925 21.0073 29.038 19.4212 27.3248 17.6946C27.1909 17.4871 26.8429 17.4871 26.6421 17.6946C26.4347 17.902 26.4347 18.1764 26.6421 18.3839C28.3554 20.1774 30.5505 21.8371 32.9463 23.2224C33.8364 23.7779 34.7265 24.1928 35.6166 24.6077C33.6959 25.3707 31.7819 25.7856 30.0017 25.9194C26.9165 26.1938 24.7281 25.4376 23.838 23.9184C22.948 22.3323 23.4298 20.0503 25.143 17.4938C26.9232 14.8704 29.8678 12.2403 33.4349 10.1724C33.7092 10.0318 33.7762 9.75743 33.6423 9.48304C33.5085 9.27558 33.1605 9.20866 32.9597 9.34251C29.8076 11.1361 27.2712 13.2843 25.4241 15.4258C23.5034 12.8024 22.8877 10.3129 23.8514 8.6532C24.7415 7.06711 26.9366 6.3711 30.0151 6.57857C33.1672 6.85295 36.868 8.09773 40.4284 10.1724C40.7027 10.3129 40.9771 10.2393 41.111 9.96489C41.2448 9.75743 41.1779 9.48305 40.9035 9.34251C40.0134 8.78704 39.1234 8.30521 38.2333 7.89028C39.6721 7.33482 41.0441 6.99349 42.3424 6.78603C43.373 9.48304 43.9151 12.7958 43.9151 16.249C43.9151 19.7759 43.3663 23.0886 42.3424 25.7856C41.6598 25.6451 40.9704 25.5112 40.2209 25.3038C39.9465 25.2368 39.6721 25.3707 39.6052 25.6518C39.5383 25.9261 39.6721 26.2072 39.9465 26.2742C40.6291 26.4147 41.3184 26.6222 42.0011 26.6891C41.9208 26.8832 41.8538 27.0237 41.7869 27.1642ZM50.0051 23.9117C49.0481 25.5714 46.6455 26.2608 43.3596 25.9128C43.9084 24.3936 44.3166 22.5933 44.591 20.7329C46.0968 19.555 47.4018 18.317 48.4257 17.0722C50.3531 19.7023 50.9688 22.1851 50.0051 23.9117Z" fill="#F5F8FA"/>
<path d="M36.9886 12.2402C34.4522 12.2402 32.3307 14.3149 32.3307 16.8713C32.3307 19.4947 34.4522 21.5693 36.9886 21.5693C37.2629 21.5693 37.4704 21.3619 37.4704 21.0875C37.4704 20.8131 37.2629 20.6057 36.9886 20.6057C35.0009 20.6057 33.3546 18.946 33.3546 16.8713C33.3546 14.8703 35.0009 13.2106 36.9886 13.2106C38.9762 13.2106 40.6225 14.8703 40.6225 16.8713C40.6225 17.1457 40.83 17.4268 41.1044 17.4268C41.3787 17.4268 41.6531 17.1524 41.6531 16.8713C41.6464 14.3082 39.525 12.2402 36.9886 12.2402Z" fill="#F5F8FA"/>
<path d="M37.5373 18.5243C37.4704 18.5243 37.4704 18.5243 37.4035 18.5243C36.5134 18.5243 35.7572 17.7614 35.7572 16.8646C35.7572 15.8942 36.5134 15.2049 37.4035 15.2049C37.4704 15.2049 37.4704 15.2049 37.5373 15.2049C37.8117 15.2049 38.0192 14.9975 38.0861 14.7231C38.0861 14.4487 37.8786 14.2412 37.6042 14.2412C37.5373 14.1743 37.4704 14.1743 37.3968 14.1743C35.9579 14.1743 34.7935 15.4191 34.7935 16.8713C34.7935 18.3236 35.9579 19.4947 37.3968 19.4947C37.4637 19.4947 37.5306 19.4947 37.6042 19.4947C37.8786 19.4947 38.0861 19.2203 38.0861 18.9393C38.0192 18.6649 37.8117 18.4574 37.5373 18.5243Z" fill="#F5F8FA"/>
</svg>
