<svg width="65" height="71" viewBox="0 0 65 71" fill="none" xmlns="http://www.w3.org/2000/svg">
<path fill-rule="evenodd" clip-rule="evenodd" d="M28.7609 4.20073C22.3733 3.19374 14.6029 4.43369 10.6802 10.0999C10.6802 10.0999 21.6819 33.0651 25.4543 42.609C36.9144 36.0936 53.3043 39.9713 64.073 46.7196C52.5302 41.9852 34.4571 39.5054 24.1468 48.1925C24.1468 48.1925 14.4526 28.5638 6.91528 10.175C11.071 2.02895 20.457 1.02196 28.4528 3.19374C29.069 3.34404 29.2268 3.8851 28.7609 4.20073Z" fill="#04638C"/>
<path fill-rule="evenodd" clip-rule="evenodd" d="M7.75693 17.1562C6.21639 18.321 3.98449 19.6361 2.21851 20.4177C2.3688 20.6506 21.3738 59.6 21.3738 59.6C32.2177 49.748 46.4507 45.5548 61.3 47.3433C46.3004 45.0137 36.3734 44.4726 22.0651 54.7153L2.83472 20.6431C3.75904 20.1772 7.52397 18.0806 7.98989 17.5395C8.06504 17.4644 7.98989 17.1562 7.75693 17.1562Z" fill="#04638C"/>
<path fill-rule="evenodd" clip-rule="evenodd" d="M3.99202 27.4742L3.91687 27.1661C3.91687 27.1661 1.91793 27.324 0.918457 28.5639L19.2321 70.8498C19.2321 70.8498 27.4608 61.6141 36.1554 56.9624C38.0041 55.9554 47.5404 50.5973 59.3086 48.0423C44.2264 49.4401 29.7678 55.4144 19.8408 67.2878L1.45201 28.7142C1.45201 28.7142 1.91041 27.865 3.99202 27.4742Z" fill="#04638C"/>
<path fill-rule="evenodd" clip-rule="evenodd" d="M57.6104 49.8984C44.6098 56.4138 38.6881 61.3811 30.2189 71L26.6042 65.6495L28.2951 64.1014C29.0616 65.1084 30.527 67.438 30.527 67.438C33.7659 64.1766 41.6865 55.8727 57.6104 49.8984Z" fill="#04638C"/>
<path d="M55.9946 18.2385C58.6097 14.8267 59.3762 11.4902 58.0687 9.16057C56.6859 6.75583 53.3794 5.82399 49.2237 6.36505C47.608 2.48741 45.1432 0 42.3777 0C40.221 0 38.2972 1.47289 36.6815 4.19326C36.5312 4.42622 36.6063 4.81699 36.8318 4.96729C37.1399 5.1251 37.448 5.04244 37.5983 4.73433C38.981 2.40473 40.6718 1.16479 42.3702 1.16479C44.3691 1.16479 46.2929 2.87065 47.8335 5.97427C47.9086 6.20723 47.9838 6.36504 48.0664 6.51534C46.3004 6.82344 44.3767 7.44719 42.3702 8.22122C39.6799 7.13157 37.0647 6.44019 34.675 6.28238C30.7523 5.97427 27.9793 6.98126 26.7544 9.15305C25.4468 11.4826 26.1382 14.7366 28.7533 18.231C26.2133 21.6427 25.3717 24.9793 26.7544 27.384C27.829 29.2477 30.1361 30.2547 33.3674 30.2547C33.7507 30.2547 34.2166 30.2547 34.675 30.2547C34.9831 30.2547 35.2912 30.1795 35.5993 30.1795C37.2902 34.1398 39.755 36.4619 42.3702 36.4619C45.1432 36.4619 47.6005 34.0572 49.2162 30.1795C49.9827 30.2547 50.6816 30.2547 51.3729 30.2547C54.5292 30.2547 56.9114 29.2477 58.0687 27.384C59.3837 24.9943 58.6097 21.6577 55.9946 18.2385ZM57.0692 9.70914C58.1438 11.648 57.4524 14.4435 55.3032 17.3893C54.1459 15.9915 52.688 14.5938 50.9972 13.2787C50.6891 11.1069 50.2307 9.16807 49.6145 7.46221C53.2291 7.07144 55.9946 7.77031 57.0692 9.70914ZM51.1475 14.8267C52.5302 15.9915 53.6875 17.0737 54.6118 18.2385C53.6875 19.4033 52.5377 20.5681 51.1475 21.7328C51.2978 20.5681 51.2978 19.4033 51.2978 18.2385C51.3053 17.0812 51.3053 15.9164 51.1475 14.8267ZM47.841 30.5027C46.3004 33.6814 44.3767 35.3873 42.3777 35.3873C40.221 35.3873 38.222 33.4485 36.6815 29.9541C38.5301 29.646 40.4539 29.0974 42.3777 28.2482C42.4529 28.3234 42.4529 28.3234 42.4529 28.3234C42.6858 28.3234 42.8361 28.1656 42.9113 28.0904C44.2188 27.4667 45.5264 26.8504 46.834 26.0764C47.1421 25.9186 47.4502 25.7683 47.7583 25.5353C47.9913 25.3775 48.0664 25.0694 47.9086 24.7613C47.7583 24.5284 47.3676 24.4532 47.1421 24.6035C46.834 24.7613 46.601 24.9116 46.2929 25.1446C44.9854 25.8435 43.6778 26.5424 42.3702 27.0834C41.0626 26.5424 39.755 25.8435 38.4475 25.1446C35.8323 23.589 33.5253 21.808 31.6015 19.8692C31.4512 19.6362 31.0604 19.6362 30.8349 19.8692C30.602 20.1021 30.602 20.4103 30.8349 20.6432C32.7587 22.6572 35.2236 24.5208 37.9139 26.0764C38.9134 26.7001 39.9129 27.1661 40.9123 27.632C38.7556 28.4887 36.6063 28.9546 34.6074 29.1049C31.1431 29.413 28.6857 28.5638 27.6862 26.858C26.6868 25.0769 27.2278 22.5144 29.1516 19.6437C31.1506 16.6979 34.4571 13.7446 38.4625 11.4225C38.7706 11.2647 38.8457 10.9566 38.6954 10.6485C38.5452 10.4155 38.1544 10.3404 37.9289 10.4907C34.3895 12.5047 31.5413 14.9169 29.4673 17.3217C27.3105 14.3758 26.6191 11.5803 27.7013 9.71666C28.7007 7.93564 31.1656 7.1541 34.6224 7.38706C38.1619 7.69517 42.3176 9.09292 46.3155 11.4225C46.6236 11.5803 46.9317 11.4977 47.082 11.1896C47.2323 10.9566 47.1571 10.6485 46.849 10.4907C45.8496 9.86695 44.8501 9.3259 43.8506 8.85998C45.4663 8.23625 47.0068 7.85297 48.4647 7.62002C49.622 10.6485 50.2307 14.3683 50.2307 18.246C50.2307 22.2063 49.6145 25.9261 48.4647 28.9546C47.6982 28.7968 46.9242 28.6465 46.0825 28.4135C45.7744 28.3384 45.4663 28.4887 45.3912 28.8043C45.316 29.1124 45.4663 29.428 45.7744 29.5032C46.5409 29.661 47.3149 29.894 48.0815 29.9691C47.9913 30.187 47.9161 30.3448 47.841 30.5027ZM57.0692 26.8504C55.9946 28.7141 53.2967 29.4882 49.607 29.0974C50.2232 27.3915 50.6816 25.37 50.9897 23.2809C52.6805 21.9583 54.1459 20.5681 55.2957 19.1703C57.46 22.1236 58.1513 24.9116 57.0692 26.8504Z" fill="#04638C"/>
<path d="M42.4528 13.7445C39.6047 13.7445 37.2225 16.0741 37.2225 18.9447C37.2225 21.8906 39.6047 24.2201 42.4528 24.2201C42.761 24.2201 42.9939 23.9872 42.9939 23.6791C42.9939 23.371 42.761 23.138 42.4528 23.138C40.2209 23.138 38.3723 21.2743 38.3723 18.9447C38.3723 16.6978 40.2209 14.8341 42.4528 14.8341C44.6847 14.8341 46.5334 16.6978 46.5334 18.9447C46.5334 19.2529 46.7664 19.5685 47.0745 19.5685C47.3826 19.5685 47.6907 19.2604 47.6907 18.9447C47.6832 16.0666 45.301 13.7445 42.4528 13.7445Z" fill="#04638C"/>
<path d="M43.0691 20.8009C42.994 20.8009 42.994 20.8009 42.9188 20.8009C41.9193 20.8009 41.0702 19.9442 41.0702 18.9372C41.0702 17.8476 41.9193 17.0735 42.9188 17.0735C42.994 17.0735 42.994 17.0735 43.0691 17.0735C43.3772 17.0735 43.6102 16.8406 43.6853 16.5325C43.6853 16.2244 43.4524 15.9914 43.1443 15.9914C43.0691 15.9163 42.994 15.9163 42.9113 15.9163C41.2956 15.9163 39.988 17.314 39.988 18.9447C39.988 20.5754 41.2956 21.8906 42.9113 21.8906C42.9864 21.8906 43.0616 21.8906 43.1443 21.8906C43.4524 21.8906 43.6853 21.5824 43.6853 21.2668C43.6102 20.9587 43.3772 20.7257 43.0691 20.8009Z" fill="#04638C"/>
</svg>
