<svg width="24" height="25" viewBox="0 0 24 25" fill="none" xmlns="http://www.w3.org/2000/svg">
<path fill-rule="evenodd" clip-rule="evenodd" d="M21.4936 6.27611C21.3848 3.92866 19.4478 2.05945 17.0734 2.05945H12.1894L11.9806 2.06427C9.62755 2.17323 7.75438 4.11403 7.75438 6.49345V7.42645L7.76123 7.52822C7.81089 7.89429 8.12469 8.17645 8.50438 8.17645C8.9186 8.17645 9.25438 7.84066 9.25438 7.42645V6.49345L9.25936 6.321C9.34859 4.78042 10.6256 3.55945 12.1894 3.55945H17.0734L17.2453 3.56441C18.781 3.65335 19.9984 4.92637 19.9984 6.48445V17.6244L19.9934 17.7969C19.9041 19.3374 18.6263 20.5594 17.0634 20.5594H12.1784L12.0066 20.5545C10.472 20.4655 9.25438 19.1918 9.25438 17.6344V16.6924L9.24754 16.5907C9.19788 16.2246 8.88408 15.9424 8.50438 15.9424C8.09017 15.9424 7.75438 16.2782 7.75438 16.6924V17.6344L7.75949 17.8488C7.87131 20.1926 9.80715 22.0594 12.1784 22.0594H17.0634L17.2721 22.0546C19.6245 21.9456 21.4984 20.0037 21.4984 17.6244V6.48445L21.4936 6.27611ZM12.3534 8.61401C12.6191 8.3472 13.0357 8.32213 13.3298 8.53938L13.414 8.61183L16.342 11.5278C16.6096 11.7943 16.6339 12.2124 16.415 12.5064L16.4123 12.5096C16.3914 12.5374 16.3685 12.5638 16.344 12.5884L16.342 12.5907L13.414 15.5067C13.1205 15.799 12.6457 15.798 12.3534 15.5045C12.0876 15.2377 12.0643 14.821 12.2828 14.5278L12.3555 14.4438L13.9963 12.8092H3.77148C3.35727 12.8092 3.02148 12.4735 3.02148 12.0592C3.02148 11.6796 3.30364 11.3658 3.66971 11.3161L3.77148 11.3092H13.9961L12.3555 9.67467C12.0887 9.40895 12.0637 8.99233 12.2809 8.69828L12.3534 8.61401Z" fill="#06989D"/>
</svg>
