<svg width="27" height="31" viewBox="0 0 27 31" fill="none" xmlns="http://www.w3.org/2000/svg">
<path fill-rule="evenodd" clip-rule="evenodd" d="M11.7738 1.77641C9.07265 1.35059 5.78679 1.87493 4.12797 4.271C4.12797 4.271 8.78029 13.9824 10.3755 18.0182C15.2217 15.263 22.1525 16.9028 26.7063 19.7565C21.8252 17.7544 14.1826 16.7058 9.82261 20.3793C9.82261 20.3793 5.72323 12.0789 2.53589 4.30278C4.29322 0.85803 8.26231 0.432201 11.6435 1.35059C11.9041 1.41414 11.9708 1.64295 11.7738 1.77641Z" fill="#06989D"/>
<path fill-rule="evenodd" clip-rule="evenodd" d="M2.89185 7.25494C2.2404 7.7475 1.29659 8.30362 0.549805 8.63411C0.613361 8.73263 8.65005 25.2032 8.65005 25.2032C13.2356 21.0371 19.2544 19.2639 25.5338 20.0202C19.1908 19.0351 14.993 18.8063 8.94241 23.1376L0.810385 8.72945C1.20126 8.53243 2.79334 7.64582 2.99036 7.41702C3.02214 7.38524 2.99036 7.25494 2.89185 7.25494Z" fill="#06989D"/>
<path fill-rule="evenodd" clip-rule="evenodd" d="M1.29972 11.6181L1.26795 11.4878C1.26795 11.4878 0.422649 11.5545 0 12.0789L7.74433 29.9604C7.74433 29.9604 11.224 26.0549 14.9008 24.0878C15.6825 23.662 19.7151 21.3962 24.6916 20.3158C18.3137 20.9068 12.1996 23.4332 8.00173 28.4541L0.225625 12.1424C0.225625 12.1424 0.419471 11.7833 1.29972 11.6181Z" fill="#06989D"/>
<path fill-rule="evenodd" clip-rule="evenodd" d="M23.9735 21.1006C18.4759 23.8558 15.9717 25.9563 12.3903 30.0239L10.8618 27.7613L11.5768 27.1067C11.901 27.5325 12.5206 28.5177 12.5206 28.5177C13.8903 27.1385 17.2397 23.627 23.9735 21.1006Z" fill="#06989D"/>
<path d="M23.2901 7.71255C24.3959 6.26982 24.7201 4.85888 24.1671 3.87375C23.5824 2.85685 22.1842 2.4628 20.4268 2.69161C19.7436 1.05186 18.7013 0 17.5319 0C16.6198 0 15.8063 0.622847 15.1231 1.77321C15.0595 1.87173 15.0913 2.03697 15.1866 2.10053C15.3169 2.16726 15.4472 2.13231 15.5108 2.00202C16.0955 1.0169 16.8105 0.492557 17.5287 0.492557C18.374 0.492557 19.1875 1.21392 19.8389 2.52635C19.8707 2.62487 19.9025 2.6916 19.9375 2.75516C19.1907 2.88545 18.3772 3.14921 17.5287 3.47653C16.391 3.01574 15.2851 2.72338 14.2746 2.65665C12.6158 2.52636 11.4432 2.95219 10.9252 3.87057C10.3723 4.85569 10.6646 6.23169 11.7705 7.70938C10.6964 9.1521 10.3405 10.563 10.9252 11.5799C11.3796 12.368 12.3552 12.7939 13.7217 12.7939C13.8837 12.7939 14.0808 12.7939 14.2746 12.7939C14.4049 12.7939 14.5352 12.7621 14.6655 12.7621C15.3805 14.4368 16.4228 15.4187 17.5287 15.4187C18.7013 15.4187 19.7404 14.4018 20.4237 12.7621C20.7478 12.7939 21.0433 12.7939 21.3357 12.7939C22.6704 12.7939 23.6777 12.368 24.1671 11.5799C24.7232 10.5694 24.3959 9.15845 23.2901 7.71255ZM23.7445 4.10573C24.1989 4.9256 23.9065 6.10775 22.9977 7.35345C22.5083 6.76238 21.8918 6.17131 21.1768 5.61519C21.0465 4.6968 20.8527 3.87693 20.5921 3.15557C22.1206 2.99032 23.2901 3.28585 23.7445 4.10573ZM21.2404 6.26982C21.8251 6.76238 22.3145 7.21999 22.7053 7.71255C22.3145 8.20511 21.8283 8.69767 21.2404 9.19023C21.3039 8.69767 21.3039 8.20511 21.3039 7.71255C21.3071 7.22316 21.3071 6.7306 21.2404 6.26982ZM19.8421 12.8987C19.1907 14.243 18.3772 14.9643 17.5319 14.9643C16.6198 14.9643 15.7745 14.1444 15.1231 12.6668C15.9048 12.5365 16.7183 12.3045 17.5319 11.9454C17.5636 11.9772 17.5636 11.9772 17.5636 11.9772C17.6621 11.9772 17.7257 11.9104 17.7575 11.8787C18.3104 11.6149 18.8634 11.3543 19.4163 11.027C19.5466 10.9603 19.6769 10.8967 19.8072 10.7982C19.9057 10.7315 19.9375 10.6012 19.8707 10.4709C19.8072 10.3724 19.6419 10.3406 19.5466 10.4042C19.4163 10.4709 19.3178 10.5344 19.1875 10.633C18.6346 10.9285 18.0816 11.224 17.5287 11.4528C16.9757 11.224 16.4228 10.9285 15.8699 10.633C14.764 9.97515 13.7884 9.22201 12.9749 8.40214C12.9113 8.30362 12.7461 8.30362 12.6507 8.40214C12.5522 8.50065 12.5522 8.63094 12.6507 8.72945C13.4643 9.5811 14.5066 10.3692 15.6442 11.027C16.0669 11.2908 16.4895 11.4878 16.9122 11.6848C16.0002 12.0471 15.0913 12.2441 14.246 12.3077C12.781 12.438 11.7419 12.0789 11.3192 11.3575C10.8966 10.6044 11.1254 9.52072 11.9389 8.3068C12.7842 7.06109 14.1824 5.81221 15.8762 4.83027C16.0065 4.76353 16.0383 4.63324 15.9747 4.50295C15.9112 4.40444 15.7459 4.37267 15.6506 4.43622C14.1538 5.28788 12.9495 6.30795 12.0724 7.32485C11.1603 6.07915 10.868 4.89701 11.3256 4.10891C11.7482 3.35577 12.7906 3.02527 14.2524 3.12379C15.7491 3.25408 17.5064 3.84515 19.197 4.83027C19.3273 4.897 19.4576 4.86205 19.5212 4.73176C19.5847 4.63324 19.5529 4.50296 19.4227 4.43622C19 4.17246 18.5774 3.94367 18.1547 3.74664C18.8379 3.48288 19.4894 3.32081 20.1059 3.2223C20.5953 4.50295 20.8527 6.07598 20.8527 7.71573C20.8527 9.39043 20.5921 10.9635 20.1059 12.2441C19.7818 12.1774 19.4544 12.1138 19.0985 12.0153C18.9682 11.9835 18.8379 12.0471 18.8062 12.1805C18.7744 12.3108 18.8379 12.4443 18.9682 12.4761C19.2924 12.5428 19.6197 12.6413 19.9438 12.6731C19.9057 12.7653 19.8739 12.832 19.8421 12.8987ZM23.7445 11.3543C23.2901 12.1424 22.1492 12.4697 20.5889 12.3045C20.8495 11.5831 21.0433 10.7283 21.1736 9.84486C21.8886 9.28556 22.5083 8.69767 22.9945 8.1066C23.9097 9.35548 24.2021 10.5344 23.7445 11.3543Z" fill="#06989D"/>
<path d="M17.5638 5.81223C16.3594 5.81223 15.3521 6.79734 15.3521 8.01127C15.3521 9.25697 16.3594 10.2421 17.5638 10.2421C17.6941 10.2421 17.7926 10.1436 17.7926 10.0133C17.7926 9.883 17.6941 9.78449 17.5638 9.78449C16.62 9.78449 15.8383 8.99639 15.8383 8.01127C15.8383 7.0611 16.62 6.273 17.5638 6.273C18.5076 6.273 19.2894 7.0611 19.2894 8.01127C19.2894 8.14156 19.3879 8.27503 19.5182 8.27503C19.6485 8.27503 19.7787 8.14473 19.7787 8.01127C19.7756 6.79416 18.7682 5.81223 17.5638 5.81223Z" fill="#06989D"/>
<path d="M17.8244 8.79617C17.7926 8.79617 17.7926 8.79617 17.7608 8.79617C17.3382 8.79617 16.9791 8.43389 16.9791 8.00807C16.9791 7.54728 17.3382 7.21998 17.7608 7.21998C17.7926 7.21998 17.7926 7.21998 17.8244 7.21998C17.9547 7.21998 18.0532 7.12146 18.085 6.99117C18.085 6.86088 17.9865 6.76237 17.8562 6.76237C17.8244 6.73059 17.7926 6.73059 17.7577 6.73059C17.0744 6.73059 16.5215 7.32166 16.5215 8.01125C16.5215 8.70083 17.0744 9.25695 17.7577 9.25695C17.7894 9.25695 17.8212 9.25695 17.8562 9.25695C17.9865 9.25695 18.085 9.12666 18.085 8.99319C18.0532 8.8629 17.9547 8.76439 17.8244 8.79617Z" fill="#06989D"/>
</svg>
