<svg width="128" height="211" viewBox="0 0 128 211" fill="none" xmlns="http://www.w3.org/2000/svg">
<path d="M118.969 77.5313L92.2166 65.5872V117.039L127.272 139.09L118.969 77.5313Z" fill="#06989D"/>
<path d="M8.11991 77.5313L32.2836 65.5872V117.039L0.62085 139.09L8.11991 77.5313Z" fill="#06989D"/>
<path d="M62.8154 139.144V128.159V117.174V0C62.8154 0 45.7301 7.27548 34.112 41.834C27.4283 61.715 24.3962 80.2777 22.694 99.7806C21.6001 112.314 22.2092 125.412 23.092 139.144H31.0367V146.467H40.3489V153.79H62.8154V146.467V139.144Z" fill="#EBF1F5"/>
<path d="M62.8154 139.144L62.8154 128.159V117.174L62.8154 0C62.8154 0 80.3754 7.27548 92.3161 41.834C99.1855 61.715 102.302 80.2777 104.051 99.7806C105.176 112.314 104.55 125.412 103.642 139.144H95.4769V146.467H85.9061L85.9061 153.79H62.8154V146.467V139.144Z" fill="white"/>
<path d="M53.7973 165.098C59.8046 165.098 63.9634 165.098 74.1296 165.098C85.3181 165.098 76.9022 197.333 74.1296 197.333C71.357 197.333 63.9634 210.331 63.9634 210.331C63.9634 210.331 57.9562 197.333 53.7973 197.333C49.6384 197.333 43.4175 165.098 53.7973 165.098Z" fill="#E36018"/>
<path d="M55.5623 165.098C60.5249 165.098 63.9605 165.098 72.3586 165.098C81.6013 165.098 74.649 189.274 72.3586 189.274C70.0682 189.274 63.9605 199.023 63.9605 199.023C63.9605 199.023 58.9979 189.274 55.5623 189.274C52.1267 189.274 46.9877 165.098 55.5623 165.098Z" fill="#FFAE44"/>
<path d="M58.2099 165.098C61.6053 165.098 63.9559 165.098 69.702 165.098C76.026 165.098 71.2691 181.216 69.702 181.216C68.1349 181.216 63.9559 187.715 63.9559 187.715C63.9559 187.715 60.5605 181.216 58.2099 181.216C55.8592 181.216 52.343 165.098 58.2099 165.098Z" fill="#FCE25E"/>
<path d="M44.7225 153.79H82.0393L79.7777 167.36H48.115L44.7225 153.79Z" fill="#5B6575"/>
<circle cx="63.048" cy="38.4475" r="13.093" fill="#06989D" stroke="#5B6575" stroke-width="10"/>
<path d="M54.6832 78.831L62.5989 66.7179L70.5146 78.831L62.5989 156.052L54.6832 78.831Z" fill="#06989D"/>
</svg>
